<?xml version="1.0" encoding="UTF-8"?>
<svg id="Layer_1" data-name="Layer 1" xmlns="http://www.w3.org/2000/svg" viewBox="0 0 250 250">
  <defs>
    <style>
      .cls-1 {
        fill: #ffa631;
      }

      .cls-2 {
        fill: #e2e6ed;
      }
    </style>
  </defs>
  <path class="cls-2" d="M91.94,178.62c-4.28-4.41-6.35-12.18-6.35-23.74V12.38h-52.57v152.79c0,11.36,1.54,21.56,4.56,30.34,2.96,8.6,7.45,16.08,13.35,22.24,5.87,6.14,13.01,10.81,21.22,13.88,8.38,3.13,18.14,4.72,29.03,4.72h49.57v-51.09h-35.87c-11.1,0-18.6-2.17-22.92-6.64h0Z"/>
  <path class="cls-2" d="M164.79,135.29v99.93h52.2v-110.21c0-11.36-1.53-21.57-4.52-30.35-2.94-8.59-7.4-16.08-13.25-22.23-5.83-6.14-12.92-10.81-21.08-13.88-8.31-3.14-18.01-4.73-28.82-4.73h-49.68v51.09h35.87c11.1,0,18.6,2.17,22.93,6.64,4.27,4.42,6.35,12.18,6.35,23.74Z"/>
  <g>
    <path class="cls-1" d="M145.91,173.05h-34.79c-8.32,0-15.06-7.7-15.06-17.19l49.85,17.19Z"/>
    <g>
      <path class="cls-1" d="M116.63,173.05v-.03h-4.77,0c-6.73.01-8.06-8.88-7.97-11.93v-45.1s15.06,0,15.06,0h19.72c8.32,0,15.06,7.7,15.06,17.19v39.87h-37.11Z"/>
      <polygon class="cls-1" points="96.06 155.86 96.06 115.99 105.81 115.99 135.5 115.99 149.47 155.86 153.74 157.38 153.74 173.05 103.05 163.37 96.06 155.86"/>
    </g>
  </g>
</svg>